<svg xmlns="http://www.w3.org/2000/svg" viewBox="0 0 460.1 361.3"><defs><style>.prefix__cls-6{fill:#fddd10}.prefix__cls-7{fill:#fbde12}.prefix__cls-8{fill:#fee207}</style></defs><path d="M41.5 166.3c3.2-6.7 8.6-8.6 15.8-8.6 39.5.2 79 0 118.5.2 3.2 0 5.6 0 5-4.3-.2-2 1.3-2.5 3-2.5 3.2 0 6.3.2 9.5 0s5.3.3 4.9 4.2c-.3 2 1 2.6 2.7 2.5h214.9c5.5 0 10.3 1.2 14.6 4.8 6 5 11.6 9.4 17.1 14.8 3.8 3.6 7.9 7 11 11.2a9.4 9.4 0 0 1 0 10.7c-8.6 12.7-21.6 20-33.3 28.9-2.5 1.9-5.8 1.2-8.7 1.2H205c-7.4 0-7-1.2-7 7v115c0 4.3-.7 6.1-5.6 6a12.2 12.2 0 0 1-11.7-12.4l.1-110.5c0-4.2-1.1-5.3-5.3-5.3-39.3.2-78.6 0-118 .3-7.1 0-12.6-1.7-16-8.2Zm218-1.9h-206c-3.4.3-5.2 2-5.2 5.5v47.5c0 3.4 1.8 5.2 5.2 5.3H419c2.6.2 4.4-.9 6-3 4.3-5.6 9.4-11.6 13.3-16.7 5.2-6.7 5.2-11.7 0-17.6-4.1-5.2-8.3-10.4-12-16-2.6-4-5.7-5.1-10.3-5.1l-156.5.1Z" fill="#fff"/><text transform="translate(152.5 213.3)" font-size="59" font-family="Calibri-Italic,Calibri" font-style="italic" fill="#fff">RAIL<tspan x="105.8" y="0" letter-spacing="0em">R</tspan><tspan x="137.4" y="0" letter-spacing="0em">O</tspan><tspan x="175.3" y="0">AD</tspan></text><text transform="translate(211.5 139.9)" fill="#fddd10" font-size="97" font-family="Elephant-Regular,Elephant">UP</text><path class="prefix__cls-6" d="M98.5 129.3h16v232h-5a11 11 0 0 1-11-11v-221Z"/><path class="prefix__cls-7" d="M208.7 98c4.4 6 4.4 9.4.1 15.6l-2.2-.1c3.6-4.6 4-9.4.9-14.4Zm-95 110.6c-6 4.2-9.4 4.2-15.5 0l1-1.3c5 3 9.8 2.6 14.4-.9ZM98.2 3.2c6.5-4.6 11.1-4.3 16.9 1.1L114 5.5c-4.6-3.9-9.5-4.5-14.7-1.2ZM3.3 113.7c-4.4-6.2-4.4-9.6 0-15.8l1.2 1c-3 4.6-3 9.1 0 13.7Zm91.4-107 1.1-1.2 1 1-1 1.2Zm21.5-1.2 1.2 1.2-1.2 1-1.1-1Z"/><path class="prefix__cls-7" d="m93.5 7.8 1.2-1.1 1 1L94.5 9Zm23.9-1.1 1.2 1.1-1.2 1.2-1.2-1.2Z"/><path class="prefix__cls-7" d="m92.3 9 1.2-1.2 1 1.1-1.1 1.2Zm26.3-1.2 1.1 1.2-1.1 1.1-1.2-1.1Zm-27.5 2.4L92.3 9l1 1-1 1.3ZM119.7 9l1.2 1.2-1.1 1.1-1.2-1.2Z"/><path class="prefix__cls-7" d="m90 11.3 1.2-1.1 1 1-1.2 1.2Zm31-1.1 1 1.1-1 1.2-1.2-1.2Z"/><path class="prefix__cls-7" d="m88.8 12.5 1.2-1.2 1 1.1-1.2 1.2Zm33.2-1.2 1.2 1.2-1.1 1.1-1.2-1.1Z"/><path class="prefix__cls-7" d="m87.6 13.7 1.2-1.2 1 1-1.1 1.3Zm35.7-1.2 1.1 1.2-1.1 1.1-1.2-1.2Zm-36.8 2.3 1.1-1.1 1 1-1 1.2Zm37.9-1.1 1.2 1.2-1.2 1.1-1.1-1.2ZM85.3 16l1.2-1.2 1 1.1-1.2 1.2Z"/><path class="prefix__cls-7" d="m125.6 14.8 1.2 1.2-1.2 1.1-1.2-1.1Zm-41.5 2.4 1.2-1.2 1 1-1.1 1.2Z"/><path class="prefix__cls-7" d="m126.8 16 1.1 1.2-1.1 1.1-1.2-1.2ZM83 18.4l1.1-1.2 1 1-1.1 1.2Zm45-1.2 1.1 1.2-1.1 1.1-1.2-1.2Zm-46.2 2.3 1.1-1.1 1.1 1-1.2 1.2Z"/><path class="prefix__cls-7" d="m129.1 18.4 1.2 1.1-1.2 1.2-1.1-1.2Zm-48.5 2.3 1.2-1.2 1 1.1-1.1 1.2Zm49.7-1.2 1.1 1.2-1.1 1.1-1.2-1.1Z"/><path class="prefix__cls-7" d="m79.4 21.9 1.2-1.2 1 1-1.1 1.2Zm52-1.2 1.2 1.2-1.1 1.1-1.2-1.2Z"/><path class="prefix__cls-7" d="m78.3 23 1.1-1.2 1.1 1.1-1.2 1.2Zm54.3-1.1 1.2 1.1-1.2 1.1-1.1-1.1Z"/><path class="prefix__cls-7" d="m77 24.2 1.3-1.2 1 1-1.2 1.2Zm56.8-1.2 1.2 1.2-1.2 1.2-1.1-1.2ZM76 25.4l1-1.2 1 1-1 1.2Zm59-1.2 1.2 1.2-1.2 1.1-1.2-1.1Zm-60.3 2.3 1.2-1.1 1 1-1.1 1.2Z"/><path class="prefix__cls-7" d="m136.1 25.4 1.2 1.1-1.2 1.2-1.1-1.2Zm-62.5 2.3 1.1-1.2 1.1 1.1-1.2 1.2Zm63.7-1.2 1.2 1.2-1.2 1.2-1.2-1.2Z"/><path class="prefix__cls-7" d="m72.4 28.9 1.2-1.2 1 1-1.1 1.3Zm66.1-1.2 1.2 1.2-1.2 1.1-1.2-1.2ZM71.2 30l1.2-1.1 1 1.1-1.1 1.1Z"/><path class="prefix__cls-7" d="m139.7 28.9 1.1 1.2-1.1 1.1-1.2-1.2ZM70 31.2l1.2-1.2 1.1 1.1-1.2 1.2Z"/><path class="prefix__cls-7" d="m140.8 30 1.2 1.2-1.2 1.2-1.1-1.2Zm-71.9 2.4 1.1-1.2 1.1 1-1.1 1.3Zm73.1-1.2 1.2 1.2-1.2 1.1-1.2-1.1Z"/><path class="prefix__cls-7" d="m67.7 33.6 1.2-1.2 1.1 1-1.2 1.2Zm75.5-1.2 1.1 1.2-1.1 1.1-1.2-1.2Zm-76.7 2.3 1.2-1.1 1 1-1.1 1.2Zm77.8-1.1 1.2 1.1-1.2 1.2-1.1-1.2Z"/><path class="prefix__cls-7" d="m65.4 35.9 1.1-1.2 1.1 1.1-1.2 1.2Zm80.1-1.2 1.2 1.2-1.2 1.1-1.2-1.1Z"/><path class="prefix__cls-7" d="m64.2 37 1.2-1.1 1 1.1-1.1 1.2Zm82.5-1.1 1.2 1.2-1.2 1.1-1.2-1.2ZM63 38.2l1.2-1.1 1 1-1.1 1.2Z"/><path class="prefix__cls-7" d="m147.8 37 1.2 1.2-1.1 1.2-1.2-1.2Zm-85.9 2.4 1.1-1.2 1 1.1-1.1 1.2Z"/><path class="prefix__cls-7" d="m149 38.2 1.2 1.2-1.2 1.2-1.2-1.2Zm-88.3 2.4 1.1-1.2 1.1 1-1.1 1.3Z"/><path class="prefix__cls-7" d="m150.2 39.4 1.2 1.2-1.2 1.1-1.2-1.1Zm-90.7 2.4 1.2-1.2 1 1-1.1 1.2Zm91.9-1.2 1.1 1.1-1.1 1.2-1.2-1.2ZM58.3 43l1.2-1.2 1 1-1 1.2Z"/><path class="prefix__cls-7" d="m152.5 41.8 1.2 1.1-1.1 1.2-1.2-1.2ZM57.2 44l1.1-1 1.1 1-1.2 1.2Z"/><path class="prefix__cls-7" d="m153.7 43 1.2 1-1.2 1.2-1.2-1.1ZM56 45.3l1.2-1.2 1 1-1.1 1.2Zm98.9-1.3 1.1 1.3-1.1 1.1-1.2-1.2ZM54.8 46.4l1.2-1.1 1 1-1.1 1.2Z"/><path class="prefix__cls-7" d="m156 45.3 1.2 1.1-1.1 1.2-1.2-1.2ZM53.6 47.6l1.2-1.2 1 1.1-1 1.2Zm103.6-1.2 1.2 1.2-1.2 1.1-1.1-1.1Z"/><path class="prefix__cls-7" d="m52.5 48.8 1.1-1.2 1.1 1-1.2 1.2Zm105.9-1.2 1.2 1.2-1.2 1.1-1.2-1.1Z"/><path class="prefix__cls-7" d="m51.3 50 1.2-1.2 1 1-1.1 1.2Zm108.3-1.2 1.1 1.1-1.1 1.2-1.2-1.2Z"/><path class="prefix__cls-7" d="m50.1 51.1 1.2-1.2 1 1.1-1 1.2ZM160.7 50l1.3 1-1.2 1.2-1.1-1.2Z"/><path class="prefix__cls-7" d="m49 52.3 1.2-1.2 1 1-1.2 1.3Zm113-1.2 1 1.2-1 1.1-1.3-1.1Z"/><path class="prefix__cls-7" d="m47.8 53.5 1.2-1.2 1 1-1.2 1.2ZM163 52.3l1.3 1.2-1.2 1.1-1.2-1.2Z"/><path class="prefix__cls-7" d="m46.6 54.6 1.2-1.2 1 1.1-1.1 1.2Zm117.7-1.1 1.1 1.1-1.1 1.2-1.2-1.2Z"/><path class="prefix__cls-7" d="m45.5 55.8 1.1-1.2 1.1 1.1-1.2 1.2Zm119.9-1.2 1.2 1.2-1.2 1.2-1.1-1.2Z"/><path class="prefix__cls-7" d="m44.3 57 1.2-1.2 1 1.1-1.1 1.1Zm122.3-1.2 1.2 1.2-1.2 1.1-1.2-1.1Z"/><path class="prefix__cls-7" d="m43.1 58.1 1.2-1.1 1 1-1.1 1.2ZM167.8 57l1.1 1.2-1.1 1.1-1.2-1.1Z"/><path class="prefix__cls-7" d="m42 59.3 1.2-1.2 1 1.1-1.2 1.2Zm127-1.2 1.1 1.2-1.2 1.2-1.1-1.2Z"/><path class="prefix__cls-7" d="m40.8 60.5 1.2-1.2 1 1-1.2 1.3Zm129.3-1.2 1.2 1.2-1.2 1.1-1.2-1.1Z"/><path class="prefix__cls-7" d="m39.6 61.6 1.2-1.1 1 1-1.1 1.2Zm131.7-1.1 1.1 1.1-1.1 1.2-1.2-1.2ZM38.4 62.8l1.2-1.1 1 1-1.1 1.2Z"/><path class="prefix__cls-7" d="m172.4 61.6 1.2 1.2-1.2 1.2-1.1-1.2ZM37.3 64l1.1-1.2 1.1 1.1-1.2 1.2Z"/><path class="prefix__cls-7" d="m173.6 62.8 1.2 1.2-1.2 1.1-1.2-1.1ZM36 65.2l1.3-1.2 1 1-1.1 1.2ZM174.8 64l1.2 1.2-1.2 1.1-1.1-1.2Z"/><path class="prefix__cls-7" d="m35 66.3 1-1.1 1.2 1-1.2 1.2Zm141-1.1 1.2 1.1-1.2 1.2-1.2-1.2Z"/><path class="prefix__cls-7" d="m33.7 67.5 1.2-1.2 1.1 1.1-1.2 1.2Zm143.4-1.2 1.2 1.2-1.2 1.1-1.1-1.1Z"/><path class="prefix__cls-7" d="m32.6 68.7 1.1-1.2 1.1 1-1.1 1.2Zm145.7-1.2 1.2 1.2-1.2 1.1-1.2-1.2 1.2-1.1ZM31.4 69.8l1.2-1.1 1 1-1.1 1.2ZM179.5 68.7l1.1 1.1-1.1 1.2-1.2-1.2ZM30.2 71l1.2-1.2 1 1.1-1 1.2Zm150.5-1.2 1.1 1.2-1.2 1.2-1.1-1.2Z"/><path class="prefix__cls-7" d="m29 72.2 1.2-1.2 1.1 1-1.2 1.3ZM181.8 71l1.2 1.2-1.2 1.1-1.1-1.1Z"/><path class="prefix__cls-7" d="m27.9 73.3 1.2-1.1 1 1-1.1 1.2ZM183 72.2l1.2 1.1-1.2 1.2-1.2-1.2Z"/><path class="prefix__cls-7" d="m26.7 74.5 1.2-1.2 1.1 1.1-1.2 1.2Zm157.5-1.2 1.1 1.2-1.1 1.2-1.2-1.2Z"/><path class="prefix__cls-7" d="m25.6 75.7 1.1-1.2 1 1.1-1 1.2Zm159.7-1.2 1.2 1.2-1.2 1.1-1.1-1.1ZM24.4 76.9l1.2-1.2 1 1-1.2 1.2Z"/><path class="prefix__cls-7" d="m186.5 75.7 1.2 1.2-1.2 1.1-1.2-1.2ZM23.2 78l1.2-1.2 1 1.1-1.1 1.2Z"/><path class="prefix__cls-7" d="m187.7 76.9 1.1 1.1-1.1 1.2-1.2-1.2ZM22 79.2l1.2-1.2 1 1-1 1.2ZM188.8 78l1.2 1.2-1.2 1.2-1.1-1.2ZM20.9 80.4l1.1-1.2 1 1-1.1 1.2ZM190 79.2l1.2 1.2-1.2 1.1-1.2-1.1Z"/><path class="prefix__cls-7" d="m19.7 81.5 1.2-1.1 1 1-1.1 1.2Zm171.5-1.1 1.2 1.1-1.2 1.2-1.2-1.2ZM18.5 82.7l1.2-1.2 1 1.1-1.1 1.2Z"/><path class="prefix__cls-7" d="m192.3 81.5 1.2 1.2-1.2 1.2-1.1-1.2ZM17.4 83.9l1.1-1.2 1.1 1-1.2 1.3Z"/><path class="prefix__cls-7" d="m193.5 82.7 1.2 1.2-1.2 1.1-1.1-1.2ZM16.2 85l1.2-1.1 1 1.1-1.1 1.2Z"/><path class="prefix__cls-7" d="m194.7 83.9 1.2 1.1-1.2 1.2-1.2-1.2ZM15 86.2l1.2-1.2 1 1.1-1.1 1.2ZM195.9 85l1.1 1.2-1.2 1.2-1.1-1.2ZM13.8 87.4l1.2-1.2 1 1.1-1.1 1.2ZM197 86.2l1.2 1.2-1.2 1.2-1.2-1.2Z"/><path class="prefix__cls-7" d="m12.7 88.6 1.1-1.2 1.1 1-1.2 1.2Zm185.5-1.2 1.2 1.2-1.2 1.1-1.2-1.1ZM11.5 89.7l1.2-1.1 1 1-1.1 1.2Zm187.9-1.1 1.1 1.1-1.1 1.2-1.2-1.2ZM10.3 91l1.2-1.3 1 1.1-1.1 1.2Zm190.3-1.3 1.1 1.2-1.1 1.2-1.2-1.2ZM9.2 92l1.1-1 1.1 1-1.2 1.2Zm192.5-1 1.2 1-1.2 1.2-1.1-1.1Z"/><path class="prefix__cls-7" d="M8 93.3 9.2 92l1 1-1.1 1.2ZM202.9 92l1.2 1.2-1.2 1.2-1.2-1.2Z"/><path class="prefix__cls-7" d="M6.8 94.4 8 93.2l1 1.1-1 1.2ZM204 93.3l1.2 1.1-1.1 1.2-1.2-1.2Z"/><path class="prefix__cls-7" d="m5.7 95.6 1.1-1.2 1 1-1 1.3Zm199.5-1.2 1.2 1.2-1.2 1.1-1.1-1.1ZM4.5 96.8l1.2-1.2 1 1-1.2 1.2Zm201.9-1.2 1.2 1.2-1.2 1.1-1.2-1.2Z"/><path class="prefix__cls-7" d="m3.3 98 1.2-1.2 1 1-1 1.2Zm204.3-1.2 1.1 1.1-1.2 1.2-1-1.2ZM97 4.3l1.2-1.1 1 1.1-1.1 1Zm-1.2 1.2L97 4.3l1 1-1 1.4ZM4.5 114.9l-1.2-1.2 1.2-1 1.1 1Z"/><path class="prefix__cls-8" d="M206.6 113.5h2.2l-1.3 1.4-1.2-1Z"/><path class="prefix__cls-7" d="m5.6 116-1.1-1 1.1-1.1 1.2 1.2Z"/><path class="prefix__cls-8" d="m207.6 114.9-1.2 1.1-1.2-1.1 1-1Z"/><path class="prefix__cls-7" d="M6.8 117.3 5.6 116l1.2-1.1L8 116Z"/><path class="prefix__cls-8" d="m206.4 116-1.2 1.2-1.2-1.2 1.2-1.1Z"/><path class="prefix__cls-7" d="m8 118.4-1.2-1.2 1.2-1 1.2 1.1Z"/><path class="prefix__cls-8" d="m205.2 117.2-1.2 1.2-1.2-1.2 1.2-1.2Z"/><path class="prefix__cls-7" d="M9.2 119.6 8 118.4l1.1-1.1 1.2 1.2Z"/><path class="prefix__cls-8" d="m204 118.4-1.2 1.2-1.1-1.2 1.1-1.2Z"/><path class="prefix__cls-7" d="m10.3 120.8-1.1-1.2 1-1.1 1.3 1.1Z"/><path class="prefix__cls-8" d="m202.9 119.6-1.2 1.1-1.2-1.1 1.2-1.2Z"/><path class="prefix__cls-7" d="m11.5 122-1.2-1.2 1.2-1.2 1.1 1.2Z"/><path class="prefix__cls-8" d="m201.7 120.7-1.2 1.2-1.1-1.2 1.1-1.1Z"/><path class="prefix__cls-7" d="m12.7 123.1-1.2-1.2 1.1-1 1.2 1.1Z"/><path class="prefix__cls-8" d="m200.5 121.9-1.1 1.2-1.2-1.2 1.2-1.2 1.1 1.2Z"/><path class="prefix__cls-7" d="m13.8 124.3-1.1-1.2 1.1-1.1 1.2 1.2Z"/><path class="prefix__cls-8" d="m199.3 123-1.1 1.2-1.2-1.1 1.2-1.2Z"/><path class="prefix__cls-7" d="m15 125.4-1.2-1.1 1.2-1.1 1.2 1.1Z"/><path class="prefix__cls-8" d="m198.2 124.3-1.2 1.1-1.2-1.2 1.2-1.1Z"/><path class="prefix__cls-7" d="m16.2 126.6-1.2-1.2 1.1-1 1.2 1Z"/><path class="prefix__cls-8" d="m197 125.4-1.2 1.2-1.1-1.2 1.1-1.2Z"/><path class="prefix__cls-7" d="m17.4 127.8-1.2-1.2 1.1-1.1 1.2 1.2Z"/><path class="prefix__cls-8" d="m195.8 126.6-1.1 1.2-1.2-1.2 1.2-1.2Z"/><path class="prefix__cls-7" d="m18.5 129-1.2-1.2 1.2-1.1 1.2 1.2Z"/><path class="prefix__cls-8" d="m194.7 127.8-1.2 1.1-1.2-1.1 1.2-1.2Z"/><path class="prefix__cls-7" d="m19.7 130.1-1.2-1.1 1.2-1.1 1.1 1.1Z"/><path class="prefix__cls-8" d="m193.5 129-1.2 1.1-1.1-1.2 1.1-1.1Z"/><path class="prefix__cls-7" d="m20.9 131.3-1.2-1.2 1.1-1.1 1.2 1.2Z"/><path class="prefix__cls-8" d="m192.3 130.1-1.2 1.2-1.1-1.2 1.2-1.2Z"/><path class="prefix__cls-7" d="m22 132.5-1.2-1.2 1.2-1.1 1.2 1.1Z"/><path class="prefix__cls-8" d="m191.2 131.3-1.2 1.1-1.2-1.1 1.2-1.2Z"/><path class="prefix__cls-7" d="m23.2 133.6-1.2-1.1 1.1-1.2 1.2 1.2Z"/><path class="prefix__cls-8" d="m190 132.4-1.2 1.2-1.1-1.2 1.1-1.1Z"/><path class="prefix__cls-7" d="m24.4 134.8-1.2-1.2 1.1-1 1.2 1Z"/><path class="prefix__cls-8" d="m188.8 133.6-1.2 1.2-1.1-1.2 1.1-1.2Z"/><path class="prefix__cls-7" d="m25.5 136-1.1-1.2 1.1-1.1 1.2 1.2Z"/><path class="prefix__cls-8" d="m187.6 134.8-1.1 1.2-1.2-1.2 1.2-1.2Z"/><path class="prefix__cls-7" d="m26.7 137.2-1.2-1.2 1.2-1.1 1.2 1.1Z"/><path class="prefix__cls-8" d="m186.5 136-1.2 1.2-1.2-1.2 1.2-1.2Z"/><path class="prefix__cls-7" d="m27.9 138.3-1.2-1.2L28 136l1.1 1.2Z"/><path class="prefix__cls-8" d="m185.3 137.1-1.2 1.2-1.1-1.2 1.2-1.2Z"/><path class="prefix__cls-7" d="m29 139.5-1.1-1.2 1.1-1.1 1.2 1.2Z"/><path class="prefix__cls-8" d="m184.1 138.3-1.1 1.2-1.2-1.2 1.2-1.2Z"/><path class="prefix__cls-7" d="m30.2 140.7-1.1-1.2 1.1-1.1 1.2 1.1Z"/><path class="prefix__cls-8" d="m183 139.5-1.2 1.1-1.1-1.1 1.1-1.2Z"/><path class="prefix__cls-7" d="m31.4 141.8-1.2-1.1 1.2-1.2 1.1 1.2Z"/><path class="prefix__cls-8" d="m181.8 140.6-1.2 1.2-1.2-1.2 1.2-1.1Z"/><path class="prefix__cls-7" d="m32.6 143-1.2-1.2 1.1-1.1 1.2 1.2Z"/><path class="prefix__cls-8" d="m180.6 141.8-1.2 1.2-1.1-1.2 1.1-1.2Z"/><path class="prefix__cls-7" d="m33.7 144.2-1.1-1.2 1.1-1.1L35 143Z"/><path class="prefix__cls-8" d="m179.4 143-1.1 1.2-1.2-1.2 1.2-1.2Z"/><path class="prefix__cls-7" d="m35 145.3-1.3-1.1L35 143l1.2 1.2Z"/><path class="prefix__cls-8" d="m178.3 144.2-1.2 1.1-1.2-1.2 1.2-1.1Z"/><path class="prefix__cls-7" d="m36 146.5-1-1.2 1-1 1.2 1Z"/><path class="prefix__cls-8" d="m177.1 145.3-1.2 1.2-1.1-1.2 1.1-1.2Z"/><path class="prefix__cls-7" d="m37.3 147.7-1.2-1.2 1.1-1.1 1.2 1.2Z"/><path class="prefix__cls-8" d="m176 146.5-1.2 1.1-1.2-1.1 1.2-1.2Z"/><path class="prefix__cls-7" d="m38.4 148.8-1.1-1.1 1-1.1 1.3 1.1Z"/><path class="prefix__cls-8" d="m174.8 147.7-1.2 1.1-1.2-1.2 1.2-1.1Z"/><path class="prefix__cls-7" d="m39.6 150-1.2-1.2 1.2-1 1.1 1Z"/><path class="prefix__cls-8" d="m173.6 148.8-1.2 1.2-1.2-1.2 1.2-1.1Z"/><path class="prefix__cls-7" d="m40.8 151.2-1.2-1.2 1.1-1.1L42 150Z"/><path class="prefix__cls-8" d="m172.4 150-1.2 1.2-1.1-1.2 1.1-1.2Z"/><path class="prefix__cls-7" d="m42 152.4-1.2-1.2 1.1-1.1 1.2 1.1Z"/><path class="prefix__cls-8" d="m171.2 151.2-1.1 1.1-1.2-1.1 1.2-1.2Z"/><path class="prefix__cls-7" d="m43.1 153.5-1.2-1.1 1.2-1.2 1.1 1.2Z"/><path class="prefix__cls-8" d="m170 152.3-1.1 1.2-1.2-1.2 1.2-1.1Z"/><path class="prefix__cls-7" d="m44.3 154.7-1.2-1.2 1.1-1.1 1.2 1.2Z"/><path class="prefix__cls-8" d="m168.9 153.5-1.2 1.2-1.1-1.2 1.1-1.2Z"/><path class="prefix__cls-7" d="m45.5 155.9-1.2-1.2 1.1-1.1 1.2 1.2Z"/><path class="prefix__cls-8" d="m167.7 154.7-1.1 1.1-1.2-1.1 1.2-1.2Z"/><path class="prefix__cls-7" d="m46.6 157-1.2-1.1 1.2-1.2 1.2 1.2Z"/><path class="prefix__cls-8" d="m166.6 155.8-1.2 1.2-1.2-1.2 1.2-1.2Z"/><path class="prefix__cls-7" d="m47.8 158.2-1.2-1.1 1.2-1.2 1.1 1.2Z"/><path class="prefix__cls-8" d="m165.4 157-1.2 1.2-1.1-1.2 1.1-1.2Z"/><path class="prefix__cls-7" d="m49 159.4-1.2-1.2 1.2-1.1 1.1 1.2Z"/><path class="prefix__cls-8" d="m164.2 158.2-1.1 1.2-1.2-1.2 1.2-1.2Z"/><path class="prefix__cls-7" d="m50.1 160.6-1.1-1.2 1.1-1.1 1.2 1.1Z"/><path class="prefix__cls-8" d="m163 159.4-1.1 1.1-1.2-1.1 1.2-1.2Z"/><path class="prefix__cls-7" d="m51.3 161.7-1.2-1.1 1.2-1.2 1.2 1.2Z"/><path class="prefix__cls-8" d="m161.9 160.5-1.2 1.2-1.2-1.2 1.2-1.1Z"/><path class="prefix__cls-7" d="m52.5 162.9-1.2-1.2 1.1-1.1 1.2 1.2Z"/><path class="prefix__cls-8" d="m160.7 161.7-1.2 1.2-1.1-1.2 1.1-1.2Z"/><path class="prefix__cls-7" d="m53.6 164-1.1-1.1 1.1-1.1 1.2 1.1Z"/><path class="prefix__cls-8" d="m159.5 162.9-1.1 1.1-1.2-1.2 1.2-1.1Z"/><path class="prefix__cls-7" d="m54.8 165.2-1.1-1.1 1-1.2 1.3 1.2Z"/><path class="prefix__cls-8" d="m158.4 164-1.2 1.2-1.2-1.2 1.2-1.2Z"/><path class="prefix__cls-7" d="m56 166.4-1.2-1.2 1.2-1 1.2 1Z"/><path class="prefix__cls-8" d="m157.2 165.2-1.2 1.2-1.2-1.2 1.2-1.2Z"/><path class="prefix__cls-7" d="m57.2 167.6-1.2-1.2 1.1-1.1 1.2 1.1Z"/><path class="prefix__cls-8" d="m156 166.4-1.2 1.1-1.1-1.1 1.1-1.2Z"/><path class="prefix__cls-7" d="m58.3 168.8-1.1-1.2 1.1-1.1 1.2 1.1Z"/><path class="prefix__cls-8" d="m154.8 167.6-1.1 1.1-1.2-1.2 1.2-1.1Z"/><path class="prefix__cls-7" d="m59.5 170-1.2-1.3 1.2-1 1.1 1.1Z"/><path class="prefix__cls-8" d="m153.7 168.7-1.2 1.2-1.2-1.2 1.2-1.2Z"/><path class="prefix__cls-7" d="m60.7 171-1.2-1 1.1-1.2 1.2 1.2Z"/><path class="prefix__cls-8" d="m152.5 169.9-1.2 1.2-1.1-1.2 1.1-1.2Z"/><path class="prefix__cls-7" d="m61.9 172.3-1.2-1.2 1.1-1.1 1.2 1.1Z"/><path class="prefix__cls-8" d="m151.3 171-1.1 1.2-1.2-1.1 1.2-1.2Z"/><path class="prefix__cls-7" d="m63 173.4-1.2-1.1L63 171l1.2 1.2Z"/><path class="prefix__cls-8" d="m150.2 172.2-1.2 1.2-1.2-1.2 1.2-1.1Z"/><path class="prefix__cls-7" d="m64.2 174.6-1.2-1.2 1.1-1.1 1.2 1.2Z"/><path class="prefix__cls-8" d="m149 173.4-1.2 1.2-1.1-1.2 1.1-1.2Z"/><path class="prefix__cls-7" d="m65.4 175.8-1.2-1.2 1.1-1.1 1.2 1.1Z"/><path class="prefix__cls-8" d="m147.8 174.6-1.2 1.1-1.1-1.1 1.2-1.2Z"/><path class="prefix__cls-7" d="m66.5 177-1.1-1.2 1.1-1.2 1.2 1.2Z"/><path class="prefix__cls-8" d="m146.7 175.7-1.2 1.2-1.2-1.2 1.2-1.1Z"/><path class="prefix__cls-7" d="m67.7 178.1-1.2-1.2 1.2-1 1.1 1.1Z"/><path class="prefix__cls-8" d="m145.5 177-1.2 1-1.2-1 1.2-1.3Z"/><path class="prefix__cls-7" d="m68.9 179.3-1.2-1.2 1.1-1.1 1.2 1.2Z"/><path class="prefix__cls-8" d="m144.3 178-1.2 1.3-1.1-1.2 1.2-1.2Z"/><path class="prefix__cls-7" d="m70 180.4-1.2-1.1L70 178l1.2 1.2Z"/><path class="prefix__cls-8" d="m143.1 179.3-1.1 1.1-1.2-1.2 1.2-1.1Z"/><path class="prefix__cls-7" d="m71.2 181.6-1.2-1.2 1.1-1 1.2 1Z"/><path class="prefix__cls-8" d="m142 180.4-1.2 1.2-1.1-1.2 1.1-1.2Z"/><path class="prefix__cls-7" d="m72.4 182.8-1.2-1.2 1.1-1.1 1.2 1.2Z"/><path class="prefix__cls-8" d="m140.8 181.6-1.2 1.2-1.1-1.2 1.1-1.2Z"/><path class="prefix__cls-7" d="m73.6 184-1.2-1.2 1.1-1.1 1.2 1.2Z"/><path class="prefix__cls-8" d="m139.6 182.8-1.1 1.1-1.2-1.1 1.2-1.2Z"/><path class="prefix__cls-7" d="m74.7 185.1-1.1-1.1 1.1-1.1 1.2 1.1Z"/><path class="prefix__cls-8" d="m138.4 184-1.1 1.1-1.2-1.2 1.2-1.1Z"/><path class="prefix__cls-7" d="m76 186.3-1.3-1.2L76 184l1.1 1.2Z"/><path class="prefix__cls-8" d="m137.3 185.1-1.2 1.2-1.1-1.2 1.2-1.2Z"/><path class="prefix__cls-7" d="m77 187.5-1-1.2 1-1.1 1.2 1.2Z"/><path class="prefix__cls-8" d="m136.1 186.3-1.2 1.1-1.1-1.1 1.2-1.2Z"/><path class="prefix__cls-7" d="m78.3 188.6-1.2-1.1 1.1-1.1 1.2 1.1Z"/><path class="prefix__cls-8" d="m135 187.4-1.2 1.2-1.2-1.1 1.2-1.2Z"/><path class="prefix__cls-7" d="m79.4 189.8-1.1-1.2 1-1 1.3 1Z"/><path class="prefix__cls-8" d="m133.8 188.6-1.2 1.2-1.2-1.2 1.2-1.2Z"/><path class="prefix__cls-7" d="m80.6 191-1.2-1.2 1.1-1 1.2 1Z"/><path class="prefix__cls-8" d="m132.6 189.8-1.2 1.1-1.1-1.1 1.1-1.2Z"/><path class="prefix__cls-7" d="m81.8 192.1-1.2-1.1 1.1-1.1L83 191Z"/><path class="prefix__cls-8" d="m131.4 191-1.2 1.1-1.1-1.1 1.2-1.2Z"/><path class="prefix__cls-7" d="m83 193.3-1.2-1.2 1-1.1 1.3 1.2Z"/><path class="prefix__cls-8" d="m130.2 192.1-1.1 1.2-1.2-1.2 1.2-1.1Z"/><path class="prefix__cls-7" d="m84.1 194.5-1.2-1.2 1.2-1.1 1.1 1.2Z"/><path class="prefix__cls-8" d="m129 193.3-1.1 1.2-1.2-1.2 1.2-1.2Z"/><path class="prefix__cls-7" d="m85.3 195.7-1.2-1.2 1.1-1.1 1.2 1.1Z"/><path class="prefix__cls-8" d="m127.9 194.5-1.2 1.1-1.1-1.1 1.2-1.2Z"/><path class="prefix__cls-7" d="m86.5 196.8-1.2-1.1 1.1-1.2 1.2 1.2Z"/><path class="prefix__cls-8" d="m126.7 195.6-1.1 1.2-1.2-1.2 1.2-1.1Z"/><path class="prefix__cls-7" d="m87.6 198-1.1-1.2 1-1 1.2 1Z"/><path class="prefix__cls-8" d="m125.6 196.8-1.2 1.2-1.2-1.2 1.2-1.1Z"/><path class="prefix__cls-7" d="m88.8 199.2-1.2-1.2 1.2-1.1 1.1 1.1Z"/><path class="prefix__cls-8" d="m124.4 198-1.2 1.2-1.1-1.2 1.1-1.2Z"/><path class="prefix__cls-7" d="m90 200.3-1.2-1.1L90 198l1.1 1.1Z"/><path class="prefix__cls-8" d="m123.2 199.1-1.2 1.2-1.1-1.2 1.2-1.1Z"/><path class="prefix__cls-7" d="m91.1 201.5-1.1-1.2 1.1-1 1.2 1Z"/><path class="prefix__cls-8" d="m122 200.3-1.1 1.2-1.2-1.2 1.2-1.2Z"/><path class="prefix__cls-7" d="m92.3 202.7-1.2-1.2 1.2-1.1 1.1 1.2Z"/><path class="prefix__cls-8" d="m120.9 201.5-1.2 1.1-1.2-1.1 1.2-1.2Z"/><path class="prefix__cls-7" d="m93.5 203.8-1.2-1.1 1.1-1.1 1.2 1.1Z"/><path class="prefix__cls-8" d="m119.7 202.7-1.2 1.1-1.1-1.2 1.1-1.1Z"/><path class="prefix__cls-7" d="m94.7 205-1.2-1.2 1.1-1 1.2 1Z"/><path class="prefix__cls-8" d="m118.5 203.8-1.1 1.2-1.2-1.2 1.2-1.1Z"/><path class="prefix__cls-7" d="m95.8 206.2-1.1-1.2 1-1.1L97 205Z"/><path class="prefix__cls-8" d="m117.4 205-1.2 1.2-1.2-1.2 1.2-1.2Z"/><path class="prefix__cls-7" d="m97 207.4-1.2-1.2L97 205l1.1 1.1Z"/><path class="prefix__cls-8" d="m116.2 206.2-1.2 1.2-1-1.3 1-1.1Z"/><path class="prefix__cls-7" d="m98.2 208.5-1.2-1.1 1.1-1.2 1.2 1.1ZM115 4.3l1.2 1.2-1.1 1.1-1.1-1Z"/><path class="prefix__cls-8" d="M113.7 208.6v-2.2l.3-.3 1 1.3Z"/><path d="m114 206-.3.4c-4.6 3.5-9.4 4-14.4.9l-1.1-1L97 205l-1.2-1.2-1.2-1.2-1.1-1.1-1.2-1.2-1.2-1.2L90 198l-1.2-1.2-1.2-1.2-1.2-1.2-1.1-1.1-1.2-1.2L83 191l-1.2-1.2-1.2-1.1-1.1-1.2-1.2-1.2-1.2-1.1L76 184l-1.2-1.2-1.2-1.1-1.1-1.2-1.2-1.2-1.2-1.2-1.2-1.1-1.1-1.2-1.2-1.1-1.2-1.2-1.1-1.2-1.2-1.2-1.2-1.1-1.2-1.2-1.1-1.1-1.2-1.2-1.2-1.2-1.1-1.2-1.2-1.2-1.1-1.1-1.2-1.2-1.2-1.2-1.2-1.1L49 157l-1.2-1.2-1.2-1.1-1.1-1.2-1.2-1.2-1.2-1.2-1.2-1.1-1.1-1.2-1.2-1.2-1.2-1.1-1.1-1.2-1.2-1.2-1.2-1.2-1.2-1.2-1.2-1.1-1.1-1.2-1.2-1.2-1.2-1.1-1.1-1.2-1.2-1.2-1.2-1.1-1.2-1.2-1.1-1.2-1.2-1.1-1.2-1.2-1.1-1.2-1.2-1.1-1.2-1.2-1.2-1.2-1.1-1.1-1.2-1.2-1.2-1.2-1.1-1.1-1.2-1.2-1.2-1.2L8 116l-1.2-1.1-1.2-1.2-1-1.1c-3-4.6-3-9.1 0-13.7l1-1.1 1.1-1.2L8 95.5l1.2-1.1 1.2-1.2 1.1-1.2 1.2-1.2 1.1-1.1 1.2-1.2 1.2-1.2 1.1-1.2 1.2-1.1 1.2-1.2 1.2-1.1 1.1-1.2 1.2-1.2 1.2-1.2 1.2-1.1 1.1-1.2 1.2-1.2 1.2-1.2 1.2-1.1 1.2-1.2 1.1-1.2 1.2-1.2 1.2-1.1 1.1-1.2 1.2-1.2 1.1-1.1 1.2-1.2 1.2-1.2 1.1-1.1 1.2-1.2 1.2-1.2 1.2-1.2 1.1-1.2 1.2-1.1 1.2-1.2 1.1-1.1 1.2-1.2 1.2-1.2 1.2-1.2 1.1-1.1 1.2-1.2 1.2-1.2 1.1-1.2 1.2-1.1 1.2-1.2 1.1-1.1 1.2-1.2 1.2-1.2 1.2-1.2 1.1-1.1 1.2-1.2 1.2-1.2 1.2-1.1 1.2-1.2 1.1-1.2 1.2-1.1 1.1-1.2 1.2-1.2 1.2-1.2 1.2-1.1 1.1-1.2 1.2-1.2 1.2-1.1 1.2-1.2 1.1-1.2 1.2-1.1 1.1-1.2 1.2-1.2 1.2-1.2 1.2-1.1 1.1-1.2 1.2-1.2 1.2-1.1 1.1-1.2 1.2-1.2L97 6.6l1-1.2 1.2-1c5.2-3.4 10-2.8 14.7 1.1l1.1 1.1 1.2 1.2 1.2 1.2 1.1 1.1 1.2 1.2 1.2 1.2 1.2 1.2 1.1 1.1 1.1 1.2 1.2 1.2 1.2 1.1 1.2 1.2 1.2 1.2 1.1 1.1 1.2 1.2 1.1 1.2 1.2 1.2 1.2 1.1 1.2 1.2 1.2 1.2 1 1.1 1.3 1.2 1.1 1.1 1.2 1.3 1.2 1.1 1.1 1.2 1.2 1.2 1.2 1.1 1.2 1.2 1.1 1.2 1.2 1.1 1.1 1.2 1.2 1.2 1.2 1.1 1.1 1.2 1.2 1.2 1.2 1.2 1.2 1.1 1.1 1.2 1.2 1.2 1.2 1.1 1.1 1.2 1.2 1.2 1.2 1.2 1.2 1.2 1.2 1.1 1.1 1.2 1.2 1.2 1.2 1.2 1.1 1.1 1.2 1.2 1.2 1.1 1.2 1.2 1.2 1.2 1.1 1.1 1.2 1.2 1.1 1.2 1.2 1.1 1.2 1.2 1.2 1.2 1.1 1.2 1.2 1.1 1.2 1.2 1.1 1.1 1.2 1.2 1.2 1.2 1.1 1.2 1.2 1.1 1.2 1.2 1.2 1.2 1.1 1.2 1.2 1.1 1.1 1.2 1.2 1.2 1.2 1.1 1.1 1.2 1.2 1.2 1.2 1.1 1.2 1.2 1 1.2c3.1 5 2.8 9.8-.8 14.4l-.4.3-1 1-1.2 1.3-1.2 1.1-1.1 1.2-1.2 1.2-1.2 1.1-1.1 1.2-1.2 1.2-1.2 1.2-1.1 1.1-1.2 1.2-1.2 1.2-1.2 1.1-1.1 1.2-1.2 1.2-1.1 1.1-1.2 1.2-1.2 1.2-1.1 1.1-1.2 1.2-1.2 1.2-1.1 1.2-1.2 1.1-1.2 1.2-1.2 1.2-1.2 1.2-1.1 1.2-1.2 1.1-1.2 1.2-1.1 1.2-1.2 1.1-1.2 1.2-1.2 1.1-1.1 1.2-1.2 1.2-1.2 1.1-1.1 1.2-1.2 1.2-1.2 1.1-1.2 1.2-1.1 1.2-1.2 1.2-1.2 1.1-1.2 1.2-1.2 1.1-1.1 1.2-1.2 1.2-1.2 1.1-1.1 1.3-1.2 1.1-1.1 1.2-1.2 1.2-1.2 1.1-1.2 1.2-1.1 1.2-1.2 1.2-1.1 1.1-1.2 1.2-1.2 1.2-1.1 1.1-1.2 1.2-1.2 1.2-1.1 1.1-1.2 1.2-1.2 1.2-1.2 1.2-1.2 1.2-1.2 1.1-1.1 1.2-1.2 1.2-1.2 1.1-1.1 1.2-1.2 1.2-1.2 1.1-1.2 1.2-1.1 1.2-1.2 1.2-1.2 1.1Zm91.8-100c0-2.5-1.4-4.3-3.1-6q-45.6-45.4-91-90.9c-4.4-4.4-7-4.4-11.5 0Q54.6 54.5 9.2 100c-4.4 4.4-4.4 7.1 0 11.4q45.4 45.6 91 91c4.2 4.2 7.2 4.2 11.4 0l91-91a9.8 9.8 0 0 0 3.2-5.4Z" fill="#15130b"/><path class="prefix__cls-6" d="M205.8 106a9.8 9.8 0 0 1-3.1 5.5q-45.6 45.4-91 90.9c-4.3 4.2-7.2 4.2-11.5 0q-45.6-45.4-91-91c-4.4-4.3-4.4-7 0-11.4l91-91c4.4-4.3 7-4.3 11.4 0l91 91c1.8 1.7 3.1 3.5 3.2 6Z"/><path d="M135 59.3a97 97 0 0 0-55.3 20.2c-3.8 3.1-7.4 6.9-7.3 11.2 0 4.8 4.8 9 10.4 10.9s11.8 2 18 1.9c8.3-.1 16.7-.5 24.8.7s16.3 4.2 21.3 9.5c2.5 2.7 4.1 6 3.4 9.4-1.1 5.5-7.9 8.9-14 11.5A442.3 442.3 0 0 1 63.8 158" fill="none" stroke="#000" stroke-miterlimit="10" stroke-width="17"/><path d="m159 60.1-37.5-22.8-1.8 42.3L159 60.1z"/></svg>